<svg xmlns="http://www.w3.org/2000/svg" xmlns:xlink="http://www.w3.org/1999/xlink" version="1.1" x="0px" y="0px" viewBox="0 0 100 125" style="enable-background:new 0 0 100 100;" xml:space="preserve"><polygon points="27.712,37.592 25.062,34.991 15.729,44.282 12.034,40.602 9.383,43.204 15.729,49.522 "/><polygon points="90.712,69.592 88.062,66.991 78.729,76.282 75.034,72.602 72.383,75.204 78.729,81.522 "/><path d="M100,44.024V7.185H63.04v15.667H49.281v18.711H37.005V24.598H0v36.839h37.005V46.039h12.275v32.408H63.04v14.369H100V55.976  H63.04V73.97h-9.263V27.328h9.263v16.696H100z M67.536,11.661h27.968v27.887H67.536V11.661z M32.509,56.96H4.496V29.074h28.013  V56.96z M67.536,60.452h27.968v27.887H67.536V60.452z"/><polygon points="76.689,31.747 81.025,27.43 85.362,31.747 87.712,29.407 83.376,25.09 87.712,20.773 85.362,18.433 81.025,22.75   76.689,18.433 74.338,20.773 78.675,25.09 74.338,29.407 "/><text x="0" y="115" fill="#000000" font-size="5px" font-weight="bold" font-family="'Helvetica Neue', Helvetica, Arial-Unicode, Arial, Sans-serif">Created by akash k</text><text x="0" y="120" fill="#000000" font-size="5px" font-weight="bold" font-family="'Helvetica Neue', Helvetica, Arial-Unicode, Arial, Sans-serif">from the Noun Project</text></svg>